<svg width="923" height="282" viewBox="0 0 923 282" fill="none" xmlns="http://www.w3.org/2000/svg">
<path d="M185.187 130.115C189.984 129.976 201.757 137.007 205.099 140.567C230.159 167.261 201.565 211.931 171.191 219.225C158.586 222.252 143.794 221.278 130.762 221.272L85.3323 221.248L63 221.246C73.3926 209.246 86.4323 191.614 97.1991 180.532C109.613 180.078 123.475 180.231 135.84 180.414C155.813 180.709 175.25 179.733 188.492 162.414C192.845 156.722 194.556 151.657 193.556 144.33C192.76 138.67 189.75 133.557 185.187 130.115Z" fill="white"/>
<path d="M194.573 60C204.378 66.0095 215.01 73.5871 224.733 80.025C226.195 80.9771 227.384 81.7372 228.728 82.849C227.053 83.8243 225.334 84.7966 223.718 85.8632C214.253 92.4732 204.413 99.7647 194.889 106.114C194.864 101.798 194.729 97.4833 194.484 93.1744C167.924 95.6171 141.267 102.574 115.604 111.472C93.7906 119.034 80.0783 138.914 101.35 157.759C102.803 159.047 105.931 161.355 107.703 162.192L107.079 163.847C97.3544 162.691 84.4524 157.137 77.6924 150.11C53.1332 124.541 75.3616 83.1532 105.856 75.1267C117.861 71.9673 133.695 73.0594 146.26 73.0677L194.181 73.0962L194.573 60Z" fill="white"/>
<path d="M167.519 111.727C172.493 111.593 177.47 111.581 182.445 111.693C182.789 123.753 182.644 139.385 182.382 151.456C180.201 154.877 177.373 157.243 174.241 159.705C170.476 162.21 168.127 163.248 163.875 164.749C163.737 157.926 163.234 114.779 164.21 112.454C165.048 111.713 166.359 111.798 167.519 111.727Z" fill="white"/>
<path d="M138.105 130.332C143.064 130.09 149.859 130.079 154.762 130.331C155.034 134.146 155.474 165.695 154.437 167.022L152.812 167.201L135.979 167.285C135.95 158.479 135.635 140.764 136.156 131.254C136.184 130.732 137.429 130.526 138.105 130.332Z" fill="white"/>
<path d="M108.042 146.306C113.706 146.124 121.286 145.915 126.914 146.274C127.314 152.485 126.997 160.711 126.91 167.083C124.209 167.11 109.254 167.789 108.032 166.822C107.984 165.674 107.976 165.317 107.655 164.222L107.078 163.848L107.702 162.193C108.384 158.75 107.781 150.411 108.042 146.306Z" fill="white"/>
<path d="M304.921 190.4C299.4 190.4 294.267 189.389 289.523 187.367C284.856 185.345 280.812 182.545 277.39 178.968C274.046 175.312 271.596 171.074 270.041 166.252L283.223 160.536C285.323 165.513 288.356 169.441 292.322 172.318C296.289 175.118 300.761 176.518 305.738 176.518C308.538 176.518 310.949 176.09 312.971 175.235C315.07 174.301 316.665 173.057 317.753 171.501C318.92 169.946 319.503 168.08 319.503 165.902C319.503 163.336 318.726 161.236 317.17 159.603C315.693 157.892 313.437 156.569 310.404 155.636L293.722 150.27C286.956 148.17 281.862 145.02 278.44 140.821C275.018 136.621 273.307 131.683 273.307 126.005C273.307 121.028 274.513 116.634 276.924 112.823C279.412 109.012 282.834 106.057 287.189 103.957C291.622 101.78 296.678 100.691 302.355 100.691C307.565 100.691 312.348 101.624 316.704 103.491C321.059 105.279 324.792 107.807 327.903 111.073C331.091 114.262 333.463 118.034 335.019 122.389L321.953 128.222C320.242 123.867 317.676 120.523 314.254 118.189C310.832 115.778 306.866 114.573 302.355 114.573C299.711 114.573 297.377 115.04 295.355 115.973C293.333 116.828 291.739 118.073 290.572 119.706C289.484 121.261 288.939 123.128 288.939 125.305C288.939 127.716 289.717 129.855 291.272 131.722C292.828 133.51 295.2 134.91 298.388 135.921L314.37 140.937C321.292 143.193 326.464 146.304 329.886 150.27C333.385 154.236 335.135 159.136 335.135 164.969C335.135 169.946 333.852 174.34 331.286 178.151C328.719 181.962 325.181 184.956 320.67 187.133C316.159 189.311 310.91 190.4 304.921 190.4ZM363.9 190.4C359.467 190.4 355.618 189.661 352.351 188.183C349.085 186.706 346.557 184.606 344.769 181.884C342.98 179.084 342.086 175.857 342.086 172.201C342.086 168.702 342.863 165.591 344.419 162.869C345.974 160.069 348.385 157.736 351.651 155.87C354.918 154.003 359.04 152.681 364.017 151.903L384.782 148.52V160.186L366.933 163.219C363.9 163.763 361.645 164.735 360.167 166.135C358.69 167.535 357.951 169.363 357.951 171.618C357.951 173.796 358.767 175.546 360.401 176.868C362.112 178.112 364.211 178.734 366.7 178.734C369.889 178.734 372.688 178.073 375.099 176.751C377.588 175.351 379.493 173.446 380.816 171.035C382.215 168.624 382.915 165.98 382.915 163.102V146.77C382.915 144.048 381.827 141.793 379.649 140.004C377.549 138.138 374.749 137.204 371.25 137.204C367.983 137.204 365.067 138.099 362.5 139.888C360.012 141.599 358.184 143.893 357.018 146.77L344.535 140.704C345.78 137.36 347.724 134.482 350.368 132.072C353.09 129.583 356.279 127.639 359.934 126.239C363.589 124.839 367.556 124.139 371.833 124.139C377.044 124.139 381.632 125.111 385.598 127.055C389.565 128.922 392.637 131.566 394.814 134.988C397.07 138.332 398.197 142.26 398.197 146.77V189H383.732V178.151L386.998 177.918C385.365 180.64 383.421 182.934 381.166 184.8C378.91 186.589 376.344 187.989 373.466 189C370.589 189.933 367.4 190.4 363.9 190.4ZM409.406 189V100.691H424.688V189H409.406ZM455.129 190.4C450.697 190.4 446.847 189.661 443.58 188.183C440.314 186.706 437.787 184.606 435.998 181.884C434.209 179.084 433.315 175.857 433.315 172.201C433.315 168.702 434.092 165.591 435.648 162.869C437.203 160.069 439.614 157.736 442.881 155.87C446.147 154.003 450.269 152.681 455.246 151.903L476.011 148.52V160.186L458.163 163.219C455.129 163.763 452.874 164.735 451.396 166.135C449.919 167.535 449.18 169.363 449.18 171.618C449.18 173.796 449.997 175.546 451.63 176.868C453.341 178.112 455.441 178.734 457.929 178.734C461.118 178.734 463.918 178.073 466.329 176.751C468.817 175.351 470.723 173.446 472.045 171.035C473.445 168.624 474.145 165.98 474.145 163.102V146.77C474.145 144.048 473.056 141.793 470.878 140.004C468.778 138.138 465.979 137.204 462.479 137.204C459.212 137.204 456.296 138.099 453.73 139.888C451.241 141.599 449.413 143.893 448.247 146.77L435.764 140.704C437.009 137.36 438.953 134.482 441.597 132.072C444.319 129.583 447.508 127.639 451.163 126.239C454.818 124.839 458.785 124.139 463.062 124.139C468.273 124.139 472.861 125.111 476.828 127.055C480.794 128.922 483.866 131.566 486.044 134.988C488.299 138.332 489.427 142.26 489.427 146.77V189H474.961V178.151L478.228 177.918C476.594 180.64 474.65 182.934 472.395 184.8C470.139 186.589 467.573 187.989 464.695 189C461.818 189.933 458.629 190.4 455.129 190.4ZM500.635 189V125.539H514.983V139.654L513.817 137.554C515.295 132.81 517.589 129.505 520.7 127.639C523.888 125.772 527.699 124.839 532.132 124.839H535.865V138.371H530.382C526.027 138.371 522.527 139.732 519.883 142.454C517.239 145.098 515.917 148.831 515.917 153.653V189H500.635ZM549.05 214.664C547.339 214.664 545.667 214.509 544.034 214.198C542.401 213.965 540.923 213.498 539.601 212.798V200.082C540.612 200.316 541.817 200.549 543.217 200.782C544.695 201.016 546.056 201.132 547.3 201.132C550.8 201.132 553.327 200.316 554.883 198.683C556.516 197.127 557.955 195.027 559.199 192.383L563.399 182.584L563.165 195.416L535.518 125.539H551.966L571.331 177.101H565.499L584.747 125.539H601.312L573.665 195.416C572.031 199.46 570.048 202.921 567.715 205.799C565.382 208.676 562.66 210.854 559.549 212.331C556.516 213.887 553.016 214.664 549.05 214.664ZM639.102 190.4C633.58 190.4 628.447 189.389 623.703 187.367C619.037 185.345 614.993 182.545 611.571 178.968C608.226 175.312 605.777 171.074 604.221 166.252L617.403 160.536C619.503 165.513 622.536 169.441 626.503 172.318C630.469 175.118 634.941 176.518 639.918 176.518C642.718 176.518 645.129 176.09 647.151 175.235C649.251 174.301 650.845 173.057 651.934 171.501C653.1 169.946 653.684 168.08 653.684 165.902C653.684 163.336 652.906 161.236 651.351 159.603C649.873 157.892 647.618 156.569 644.584 155.636L627.903 150.27C621.136 148.17 616.042 145.02 612.621 140.821C609.199 136.621 607.488 131.683 607.488 126.005C607.488 121.028 608.693 116.634 611.104 112.823C613.593 109.012 617.015 106.057 621.37 103.957C625.803 101.78 630.858 100.691 636.535 100.691C641.746 100.691 646.529 101.624 650.884 103.491C655.239 105.279 658.972 107.807 662.083 111.073C665.272 114.262 667.644 118.034 669.199 122.389L656.133 128.222C654.423 123.867 651.856 120.523 648.434 118.189C645.012 115.778 641.046 114.573 636.535 114.573C633.891 114.573 631.558 115.04 629.536 115.973C627.514 116.828 625.919 118.073 624.753 119.706C623.664 121.261 623.12 123.128 623.12 125.305C623.12 127.716 623.897 129.855 625.453 131.722C627.008 133.51 629.38 134.91 632.569 135.921L648.551 140.937C655.472 143.193 660.644 146.304 664.066 150.27C667.566 154.236 669.316 159.136 669.316 164.969C669.316 169.946 668.032 174.34 665.466 178.151C662.9 181.962 659.361 184.956 654.85 187.133C650.34 189.311 645.09 190.4 639.102 190.4ZM679.402 189V100.691H694.684V138.021L692.584 135.805C694.062 131.994 696.473 129.116 699.817 127.172C703.239 125.15 707.205 124.139 711.716 124.139C716.382 124.139 720.504 125.15 724.081 127.172C727.737 129.194 730.575 132.033 732.597 135.688C734.619 139.265 735.63 143.426 735.63 148.17V189H720.348V151.787C720.348 148.987 719.804 146.576 718.715 144.554C717.626 142.532 716.11 140.976 714.166 139.888C712.299 138.721 710.083 138.138 707.516 138.138C705.028 138.138 702.811 138.721 700.867 139.888C698.922 140.976 697.406 142.532 696.317 144.554C695.228 146.576 694.684 148.987 694.684 151.787V189H679.402ZM745.637 189V125.539H760.919V189H745.637ZM745.637 118.423V102.091H760.919V118.423H745.637ZM779.461 189V139.188H768.262V125.539H779.461V123.439C779.461 118.617 780.434 114.534 782.378 111.19C784.4 107.768 787.2 105.163 790.777 103.374C794.355 101.585 798.593 100.691 803.493 100.691C804.426 100.691 805.437 100.769 806.526 100.924C807.692 101.002 808.665 101.119 809.442 101.274V114.456C808.665 114.301 807.926 114.223 807.226 114.223C806.604 114.145 806.02 114.106 805.476 114.106C802.054 114.106 799.41 114.884 797.543 116.44C795.677 117.917 794.743 120.25 794.743 123.439V125.539H808.859V139.188H794.743V189H779.461ZM848.366 189.7C841.211 189.7 835.651 187.756 831.684 183.867C827.796 179.901 825.852 174.34 825.852 167.185V139.188H814.886V125.539H816.052C819.163 125.539 821.574 124.722 823.285 123.089C824.996 121.456 825.852 119.084 825.852 115.973V111.073H841.134V125.539H855.716V139.188H841.134V166.369C841.134 168.468 841.484 170.257 842.184 171.735C842.961 173.212 844.128 174.34 845.683 175.118C847.316 175.896 849.377 176.284 851.866 176.284C852.41 176.284 853.033 176.246 853.733 176.168C854.51 176.09 855.249 176.012 855.949 175.934V189C854.86 189.156 853.616 189.311 852.216 189.467C850.816 189.622 849.533 189.7 848.366 189.7Z" fill="white"/>
</svg>
